<?xml version="1.0" standalone="no"?>
<!DOCTYPE svg PUBLIC "-//W3C//DTD SVG 20010904//EN"
 "http://www.w3.org/TR/2001/REC-SVG-20010904/DTD/svg10.dtd">
<svg version="1.0" xmlns="http://www.w3.org/2000/svg"
 width="1920.000000pt" height="1080.000000pt" viewBox="0 0 1920.000000 1080.000000"
 preserveAspectRatio="xMidYMid meet">

<g transform="translate(0.000000,1080.000000) scale(0.100000,-0.100000)"
fill="#000000" stroke="none">
<path d="M9690 8983 c-82 -15 -195 -58 -250 -94 -111 -75 -207 -218 -247 -369
-26 -102 -22 -247 10 -340 26 -79 25 -90 -16 -111 -15 -8 -24 -6 -40 9 -65 61
-208 56 -347 -11 -78 -38 -208 -163 -258 -249 -122 -208 -171 -430 -158 -723
3 -82 9 -167 12 -187 6 -36 6 -37 -33 -47 -21 -6 -87 -15 -147 -20 -60 -5
-112 -13 -117 -18 -5 -5 -13 -79 -19 -163 -12 -182 -14 -210 -42 -397 -12 -81
-18 -157 -14 -177 8 -40 10 -41 174 -75 64 -14 82 -21 67 -26 -11 -5 -40 -16
-65 -25 -43 -17 -45 -20 -48 -60 l-3 -42 -26 23 -26 24 6 -150 c3 -82 15 -213
27 -290 11 -77 23 -184 27 -237 l6 -97 -38 -3 c-50 -4 -73 -36 -88 -121 -11
-64 -10 -67 13 -92 23 -25 23 -26 6 -61 -23 -49 -14 -159 20 -230 l24 -51 -34
-214 c-57 -351 -68 -452 -56 -516 18 -101 14 -124 -45 -238 -30 -59 -55 -113
-55 -120 0 -6 -12 -22 -26 -36 -37 -34 -104 -146 -168 -279 -50 -104 -57 -126
-70 -228 -14 -108 -17 -118 -64 -195 -73 -120 -84 -150 -89 -259 -5 -85 -3
-102 16 -141 21 -43 21 -46 6 -118 -9 -41 -47 -196 -85 -345 -61 -236 -70
-282 -70 -360 0 -103 13 -160 40 -174 44 -24 207 -34 365 -23 86 6 159 14 163
17 16 17 5 153 -17 216 -47 130 -37 345 24 505 51 138 73 172 121 195 53 26
81 70 119 189 14 47 59 157 100 245 40 89 83 194 95 234 20 64 21 79 11 137
-11 62 -10 68 20 147 27 70 41 92 94 143 42 41 72 81 93 127 24 51 42 74 78
99 57 39 78 84 93 200 7 52 27 130 52 195 90 245 118 301 189 378 21 23 50 72
65 109 15 37 31 69 35 72 5 3 27 -30 50 -74 23 -43 49 -86 60 -96 11 -10 45
-19 87 -23 l68 -7 193 -285 c212 -314 228 -330 319 -332 26 -1 62 2 78 5 27 6
33 3 61 -41 17 -26 34 -52 38 -59 4 -7 1 -65 -5 -130 -8 -86 -16 -123 -29
-138 -44 -50 -53 -85 -47 -180 14 -222 39 -424 63 -505 13 -46 24 -102 24
-124 0 -30 7 -47 27 -68 19 -20 28 -40 29 -66 0 -20 4 -116 9 -212 l8 -175
-31 -90 c-17 -49 -43 -153 -57 -230 l-26 -140 28 -22 c39 -32 78 -37 210 -29
112 7 119 6 246 -29 l130 -37 273 4 c150 2 275 6 278 9 13 13 17 97 7 135 -10
38 -18 45 -79 77 -37 19 -98 45 -136 57 -43 14 -84 36 -109 59 -64 57 -218
240 -235 280 -13 28 -17 80 -20 225 l-4 188 30 67 c42 91 48 155 26 285 -15
91 -15 118 -5 189 38 258 52 403 58 578 6 189 5 198 -15 226 -13 19 -24 53
-28 94 -6 61 -9 66 -41 85 -32 17 -40 32 -87 159 -172 460 -306 703 -521 950
-63 72 -64 74 -86 179 -22 103 -22 106 -4 146 20 45 24 46 87 24 76 -25 108
-17 145 39 58 86 75 148 84 302 4 77 12 178 18 225 14 108 14 274 0 323 -14
51 -60 102 -114 124 -25 10 -43 23 -41 28 2 6 11 45 21 88 9 42 19 77 21 77 2
0 46 -23 96 -51 239 -133 364 -187 493 -214 54 -11 83 -22 92 -35 17 -23 38
-27 29 -5 -4 11 1 15 17 15 37 0 119 45 184 102 34 29 79 67 101 85 54 44 80
102 104 235 29 161 32 168 105 192 l60 21 -29 120 c-16 66 -31 154 -35 196
l-6 75 66 52 c55 44 127 130 127 152 0 3 20 16 45 28 44 21 56 22 365 22 305
0 320 1 330 19 5 11 10 32 10 47 0 23 3 25 23 19 51 -16 117 -16 189 -1 106
22 376 22 433 0 22 -9 47 -16 55 -16 8 0 68 1 133 3 l117 2 0 31 c0 17 3 41 6
54 6 22 5 22 -98 22 -58 0 -119 5 -136 11 -25 8 -35 7 -56 -6 -32 -21 -230
-32 -379 -20 l-96 7 5 42 c4 26 1 52 -6 65 -11 22 -12 22 -32 4 -20 -17 -21
-17 -44 12 -22 28 -24 39 -24 143 l0 112 -25 0 -25 0 0 -144 c0 -87 -4 -147
-10 -151 -6 -3 -20 -3 -31 0 -17 6 -20 13 -17 41 l4 34 -808 0 -808 0 0 24 c0
21 -7 27 -47 38 -34 10 -49 19 -51 33 -8 64 -25 126 -32 119 -4 -5 -15 -43
-25 -84 -9 -41 -19 -82 -21 -91 -3 -11 -20 -19 -50 -23 -24 -3 -84 -17 -131
-31 -98 -28 -168 -33 -176 -11 -3 8 -9 56 -12 108 l-7 93 66 19 c36 10 77 28
90 41 56 52 60 239 8 390 -17 47 -28 94 -25 104 8 33 -16 60 -85 95 -37 19
-101 55 -142 80 -41 26 -102 55 -135 65 -64 20 -173 32 -215 24z m1350 -1439
c24 -62 23 -101 -2 -136 -14 -18 -38 -57 -54 -87 -28 -53 -148 -191 -156 -181
-3 3 -28 49 -56 102 -59 115 -59 114 48 176 59 34 65 41 62 67 -1 17 1 35 5
41 19 25 61 44 100 44 37 0 45 -4 53 -26z"/>
<path d="M12040 5376 c-41 -12 -93 -32 -115 -43 -126 -66 -241 -188 -290 -310
-53 -132 -55 -173 -55 -983 0 -794 2 -842 50 -976 51 -147 212 -299 378 -356
l67 -23 1050 0 1050 0 65 23 c190 69 333 217 396 412 16 49 18 111 22 603 l3
547 -1015 0 c-655 0 -1016 -3 -1016 -10 0 -28 56 -151 95 -210 74 -111 169
-185 284 -220 59 -19 94 -20 562 -20 l499 0 0 -300 0 -300 -952 2 -953 3 0
830 0 829 1243 -3 1243 -3 -7 39 c-20 111 -99 251 -184 325 -64 57 -144 104
-228 137 l-67 26 -1025 2 -1025 2 -75 -23z"/>
<path d="M15670 5384 c-177 -46 -332 -169 -409 -325 -80 -163 -76 -113 -76
-1024 1 -749 2 -815 19 -875 62 -226 248 -415 457 -465 93 -22 1908 -22 2012
0 103 22 200 77 288 165 89 89 141 176 169 285 19 75 20 111 20 894 0 892 1
867 -59 996 -60 129 -168 238 -302 305 -122 62 -86 60 -1120 59 -788 0 -953
-3 -999 -15z m1890 -1354 l0 -860 -844 0 c-464 0 -864 3 -890 6 l-46 7 0 853
0 854 890 0 890 0 0 -860z"/>
<path d="M883 5350 c-202 -53 -363 -207 -441 -422 l-27 -73 0 -835 c0 -833 0
-835 22 -905 57 -180 216 -353 382 -416 129 -48 144 -49 1089 -49 740 0 899 3
957 15 189 39 363 178 448 356 46 97 67 165 67 218 l0 31 -1120 0 -1120 0 2
748 3 747 1118 3 1117 2 0 23 c0 45 -31 144 -71 226 -60 121 -171 233 -289
289 -47 22 -112 45 -144 51 -40 7 -371 11 -990 10 -878 0 -935 -1 -1003 -19z"/>
<path d="M4384 5355 c-222 -49 -415 -240 -474 -471 -17 -67 -20 -110 -20 -338
0 -287 8 -342 59 -444 69 -136 171 -240 296 -303 135 -66 76 -63 1098 -66
l927 -4 0 -249 0 -250 -1185 0 -1185 0 0 -28 c0 -44 28 -130 68 -207 52 -99
173 -218 272 -268 154 -76 85 -71 1145 -75 1072 -3 1041 -5 1195 71 68 33 102
58 170 127 139 139 173 228 191 500 13 197 5 383 -21 486 -52 202 -201 367
-395 437 -128 46 -162 47 -1094 47 l-881 0 0 235 0 235 1163 0 c640 0 1166 2
1169 5 8 8 -11 102 -33 164 -26 76 -89 169 -162 238 -70 67 -130 105 -226 142
l-66 26 -975 2 c-786 1 -987 -1 -1036 -12z"/>
<path d="M18373 5313 c-24 -2 -43 -9 -43 -15 0 -7 16 -8 45 -4 l45 7 0 -125
c0 -105 2 -126 15 -126 12 0 15 20 15 119 l0 119 53 10 52 10 -41 1 c-23 0
-54 3 -70 5 -16 2 -48 1 -71 -1z"/>
<path d="M18600 5181 c0 -119 2 -141 15 -141 12 0 15 19 15 111 0 136 9 135
65 -11 22 -55 42 -100 46 -100 9 0 50 84 79 163 12 32 25 57 30 57 5 0 11 -53
12 -117 3 -110 4 -116 17 -88 10 21 14 64 13 144 -1 63 -4 116 -6 119 -3 2
-17 0 -33 -5 -24 -8 -33 -24 -63 -101 -19 -49 -38 -93 -41 -97 -7 -6 -62 119
-74 168 -4 15 -12 27 -19 27 -6 0 -21 3 -33 6 l-23 6 0 -141z"/>
</g>
</svg>
