<?xml version="1.0" standalone="no"?>
<!DOCTYPE svg PUBLIC "-//W3C//DTD SVG 20010904//EN"
 "http://www.w3.org/TR/2001/REC-SVG-20010904/DTD/svg10.dtd">
<svg version="1.0" xmlns="http://www.w3.org/2000/svg"
 width="2172.000000pt" height="695.000000pt" viewBox="0 0 2172.000000 695.000000"
 preserveAspectRatio="xMidYMid meet">

<g transform="translate(0.000000,695.000000) scale(0.100000,-0.100000)"
fill="#000000" stroke="none">
<path d="M3163 6754 c-603 -65 -1142 -280 -1628 -648 -198 -150 -345 -294
-569 -556 -54 -63 -177 -240 -239 -342 -173 -287 -290 -562 -371 -871 -62
-235 -114 -568 -92 -586 6 -5 115 -52 241 -104 257 -106 403 -167 810 -337
154 -64 369 -154 478 -200 l199 -83 76 41 c140 74 249 105 410 117 l92 7 30
42 c16 22 101 147 189 276 88 129 169 249 181 265 131 181 364 535 366 555 21
245 55 382 133 544 82 173 191 309 351 442 25 20 44 41 42 46 -1 5 2 7 6 4 5
-3 47 17 92 44 340 205 799 221 1155 43 238 -120 457 -340 564 -566 93 -196
124 -339 124 -562 -1 -156 -3 -180 -31 -285 -57 -222 -167 -422 -314 -571 -89
-91 -114 -112 -209 -176 -165 -110 -392 -186 -596 -199 -107 -6 -109 -7 -163
-48 -30 -22 -63 -45 -72 -51 -9 -5 -54 -37 -100 -70 -110 -80 -781 -563 -835
-600 l-43 -30 0 -71 c-1 -259 -129 -521 -342 -698 -26 -22 -44 -44 -41 -49 3
-6 1 -7 -4 -4 -6 4 -36 -8 -66 -26 -150 -91 -319 -132 -506 -124 -181 7 -320
50 -463 142 -60 39 -197 166 -240 222 -48 63 -112 189 -140 276 l-31 99 -51
24 c-28 13 -139 60 -246 105 -107 44 -262 109 -345 144 -82 34 -217 91 -300
125 -82 33 -180 74 -218 91 -37 16 -69 29 -71 29 -15 0 62 -227 134 -395 81
-191 263 -521 280 -510 4 2 7 -1 7 -8 0 -31 220 -320 235 -311 6 4 8 3 5 -3
-7 -12 143 -178 244 -269 161 -146 254 -224 268 -224 6 0 11 -4 11 -9 0 -5 21
-23 48 -40 26 -17 72 -48 102 -69 79 -56 298 -179 417 -235 328 -153 615 -235
1013 -289 141 -19 592 -16 752 5 392 52 715 150 1062 324 123 62 303 168 377
222 27 20 76 56 111 81 180 130 538 475 521 503 -3 5 -1 7 4 4 6 -4 46 39 90
96 287 368 494 794 603 1239 101 414 122 868 59 1293 -132 891 -644 1708
-1389 2218 -463 317 -972 500 -1544 556 -146 15 -471 12 -623 -5z"/>
<path d="M4460 5150 c-176 -28 -332 -109 -460 -239 -148 -151 -223 -315 -237
-522 -22 -323 159 -645 443 -786 181 -91 368 -113 564 -68 100 24 254 104 335
176 176 155 270 352 282 585 20 391 -235 738 -615 835 -88 22 -235 31 -312 19z
m300 -219 c286 -90 470 -379 429 -676 -19 -141 -74 -256 -171 -355 -123 -126
-261 -183 -438 -184 -114 -1 -182 15 -280 62 -66 33 -77 41 -160 120 -152 143
-215 380 -160 598 56 216 243 399 461 449 86 19 233 13 319 -14z"/>
<path d="M9285 4724 c-264 -26 -444 -100 -581 -239 -126 -129 -178 -265 -178
-465 0 -134 21 -218 79 -315 107 -177 263 -270 703 -419 207 -70 275 -101 341
-154 52 -43 72 -87 72 -160 0 -158 -132 -248 -381 -259 -205 -10 -421 35 -628
128 -34 16 -66 29 -70 29 -4 0 -41 -90 -81 -201 -62 -166 -72 -202 -60 -210
72 -49 259 -123 396 -158 238 -60 551 -67 748 -17 343 89 552 307 596 623 29
208 -31 398 -165 519 -133 121 -243 174 -671 321 -156 53 -277 116 -318 164
-107 125 -38 319 131 368 97 28 165 33 272 20 132 -16 247 -50 375 -114 60
-30 110 -53 111 -52 1 1 46 82 102 179 l100 178 -30 25 c-64 54 -262 136 -418
173 -114 28 -343 46 -445 36z"/>
<path d="M21064 4706 c-149 -36 -243 -158 -244 -318 0 -37 7 -89 16 -115 74
-221 354 -291 528 -132 77 70 100 128 100 249 0 82 -4 102 -26 145 -27 53 -96
123 -144 148 -33 16 -124 37 -157 36 -12 0 -45 -6 -73 -13z m166 -47 c0 -4 10
-9 23 -13 44 -11 102 -63 132 -117 27 -49 30 -63 30 -144 0 -75 -4 -97 -23
-135 -51 -96 -135 -145 -252 -144 -165 1 -270 109 -270 279 0 140 76 243 205
276 35 9 155 7 155 -2z"/>
<path d="M21040 4390 c0 -152 1 -160 20 -160 16 0 19 8 22 63 l3 62 35 3 c34
3 36 1 68 -63 26 -54 36 -65 57 -65 14 0 25 2 25 4 0 3 -15 34 -34 70 l-34 66
29 29 c39 40 39 82 0 122 -28 27 -34 29 -110 29 l-81 0 0 -160z m152 103 c43
-39 4 -93 -67 -93 l-45 0 0 55 0 55 47 0 c29 0 53 -6 65 -17z"/>
<path d="M10627 4683 c-4 -3 -7 -100 -7 -215 l0 -208 365 0 365 0 0 -985 0
-985 245 0 245 0 0 985 0 985 360 0 360 0 0 209 c0 181 -2 210 -16 215 -21 8
-1909 8 -1917 -1z"/>
<path d="M13120 3490 l0 -1200 800 0 800 0 0 215 0 215 -555 0 -555 0 0 285 0
285 480 0 480 0 0 210 0 210 -480 0 -480 0 0 275 0 275 555 0 555 0 0 209 c0
181 -2 210 -16 215 -9 3 -369 6 -800 6 l-784 0 0 -1200z"/>
<path d="M16053 4678 c-5 -7 -31 -69 -56 -138 -75 -206 -371 -1002 -622 -1675
-86 -231 -170 -455 -185 -497 l-29 -78 258 0 258 0 73 218 c40 119 76 223 79
229 5 10 113 14 474 15 l467 3 9 -25 c6 -14 36 -99 67 -190 31 -91 63 -184 71
-207 l15 -43 264 0 c145 0 264 3 264 7 0 5 -104 279 -295 778 -40 105 -105
273 -144 375 -38 102 -131 345 -206 540 -75 195 -166 432 -202 526 l-65 172
-242 1 c-188 2 -245 -1 -253 -11z m355 -871 c57 -166 130 -378 162 -472 33
-93 59 -173 60 -177 0 -5 -148 -8 -330 -8 -181 0 -330 2 -330 3 0 2 72 217
160 477 88 261 160 475 160 477 0 2 3 3 8 3 4 0 53 -136 110 -303z"/>
<path d="M17980 3490 l0 -1200 235 0 235 0 2 728 3 727 52 -105 c28 -58 131
-278 228 -490 98 -212 219 -475 270 -585 l93 -200 139 -3 139 -3 69 148 c38
82 91 195 118 253 52 110 219 469 269 580 121 263 198 425 198 415 0 -5 0
-337 0 -737 l0 -728 240 0 240 0 -2 1198 -3 1197 -231 3 c-177 2 -234 -1 -242
-10 -5 -7 -39 -78 -75 -158 -132 -296 -97 -216 -413 -928 -147 -328 -272 -607
-278 -620 -12 -22 -14 -20 -46 50 -18 40 -55 119 -82 176 -26 57 -48 105 -48
107 0 2 -29 65 -65 140 -36 74 -65 137 -65 140 0 3 -194 422 -316 684 -24 51
-44 95 -44 97 0 2 -22 50 -49 106 -27 57 -60 129 -74 160 l-25 57 -236 1 -236
1 0 -1201z"/>
<path d="M2388 2935 c-127 -26 -143 -14 212 -161 63 -26 138 -63 166 -81 107
-69 196 -194 223 -313 15 -65 13 -187 -4 -253 -42 -162 -154 -288 -311 -349
-164 -63 -253 -52 -550 73 -118 50 -217 89 -219 87 -8 -8 67 -113 119 -167
205 -215 524 -271 791 -140 102 50 181 113 240 192 176 233 198 513 62 772
-19 36 -65 94 -117 146 -133 133 -273 196 -459 205 -51 2 -113 -2 -153 -11z"/>
</g>
</svg>
